<svg width="466" height="60" viewBox="0 0 466 60" fill="none" xmlns="http://www.w3.org/2000/svg">
<g clip-path="url(#clip0_0_1)">
<path d="M311.542 56.9596V54.7469L309.207 53.9114C301.306 51.085 295.096 44.6822 292.497 36.6828C290.349 30.0703 290.94 21.4598 293.949 15.5102C299.098 5.33187 310.47 -0.811322 321.948 0.385166C330.61 1.28804 337.462 5.3621 342.131 12.3844C347.695 20.7538 348.09 32.366 343.12 41.4453C339.94 47.254 335.145 51.4361 328.995 53.7653L326.359 54.7634V56.9679V59.1724H318.951H311.542V56.9596ZM318.959 32.1849H325.83L325.84 35.1614L325.85 38.138L327.153 36.7411C330.687 32.9527 331.543 27.0278 329.225 22.3905C328.134 20.2071 325.782 17.8942 323.543 16.8021C321.839 15.9708 321.561 15.9172 318.951 15.9151C316.368 15.9131 316.046 15.9729 314.373 16.7654C310.168 18.757 307.321 23.2356 307.312 27.8724C307.305 31.3545 308.358 34.1735 310.569 36.5942L311.939 38.0943L312.014 35.1396L312.089 32.1849H318.959H318.959ZM23.6888 55.6014C13.2759 53.2448 4.83567 46.2345 1.83635 37.451C0.533568 33.6359 0.267418 32.0141 0.277364 27.9515C0.285264 24.7449 0.389639 23.7459 0.91343 21.8661C3.56293 12.3578 9.59693 5.33764 17.8725 2.13544C25.3702 -0.76576 33.4064 -0.407748 40.4665 3.14202C48.5484 7.20549 53.8688 13.8362 55.5347 21.9211C56.1197 24.7599 56.082 29.8197 55.4535 32.8463C54.7584 36.1929 54.385 37.4765 54.1064 37.4765C53.9741 37.4765 50.6267 35.8697 46.6679 33.9059L39.47 30.3353L39.4442 26.9606C39.4207 23.8752 39.3572 23.455 38.7031 22.0593C37.1704 18.7885 33.1144 16.0791 29.3931 15.8403C26.0119 15.6233 23.1383 16.6373 20.6883 18.9118C18.9754 20.502 17.5083 22.7702 16.7832 24.9492C15.9753 27.3768 16.1322 31.1021 17.1351 33.3102C19.1302 37.7024 24.9811 40.8458 29.426 39.9134C31.8478 39.4054 33.6746 38.3298 35.7933 36.1641C37.6186 34.2984 37.7563 34.2107 38.3069 34.5633C38.8785 34.9293 46.156 39.3995 49.6711 41.5437C50.6534 42.1429 51.457 42.6979 51.457 42.777C51.457 42.8561 50.5247 43.9904 49.3852 45.2977C45.1 50.2138 40.2383 53.496 34.8646 55.1007C31.9376 55.9747 26.4289 56.2216 23.6888 55.6014H23.6888ZM255.517 55.4693C246.358 54.1755 238.066 47.9862 234.157 39.5266C230.142 30.8359 231.125 19.7958 236.6 12.0955C239.268 8.34244 243.97 4.43189 247.91 2.68923C257.139 -1.39272 268.012 -0.329919 275.721 5.40754C283.55 11.2348 287.658 19.9646 287.113 29.6204C286.724 36.5175 284.311 42.0915 279.559 47.071C275.475 51.3512 270.941 53.9185 265.377 55.1029C263.102 55.587 257.757 55.7856 255.517 55.4693ZM262.431 39.7226C264.508 39.1816 265.946 38.2905 267.684 36.469C270.239 33.7903 271.193 31.1556 270.999 27.318C270.797 23.3309 269.164 20.2083 266.073 17.8968C262.855 15.4912 258.246 15.1066 254.546 16.9351C250.347 19.0103 247.767 23.2104 247.784 27.941C247.797 31.447 248.905 34.1408 251.336 36.5801C254.46 39.7153 258.292 40.8006 262.431 39.7226ZM367.51 55.4562C360.986 54.4315 356.33 50.6395 354.249 44.6562C352.921 40.8364 352.821 39.0742 352.819 19.551L352.817 1.49319H360.612H368.407L368.483 19.4187C368.568 39.1638 368.488 38.2383 370.208 39.5959C370.798 40.0616 371.188 40.151 372.206 40.0541C373.71 39.9112 374.656 39.1451 375.041 37.7608C375.203 37.1785 375.304 30.0278 375.305 19.1541L375.306 1.49319H383.119H390.933L390.853 21.0062C390.765 42.6774 390.843 41.6776 388.938 45.5463C386.573 50.3504 382.576 53.5696 377.249 54.961C374.854 55.5865 369.932 55.8368 367.509 55.4562H367.51ZM63.0987 27.931V1.45207L75.468 1.55666C87.166 1.65557 87.9521 1.69251 89.9539 2.23713C97.4109 4.26597 102.061 9.36305 103.055 16.5974C103.809 22.0882 101.898 27.3843 97.7901 31.1876L96.2408 32.6221L100.573 43.0454C102.955 48.7782 104.972 53.6804 105.054 53.9393C105.195 54.3834 104.743 54.4099 97.0192 54.4099H88.8353L84.9573 45.7448L81.0794 37.0796L81.151 30.4651L81.2227 23.8505L82.9424 23.6982C85.2818 23.4911 86.3002 22.912 86.964 21.4115C87.5648 20.0532 87.5027 18.568 86.8002 17.4959C86.021 16.3066 84.907 15.9436 81.6857 15.8293L78.7091 15.7236V35.0667V54.4099H70.9039H63.0987V27.931ZM116.809 39.7076V25.0053L110.674 15.432C107.3 10.1668 103.906 4.87655 103.132 3.676L101.725 1.49319L109.73 1.50342L117.735 1.51365L119.969 5.14143C121.198 7.13672 122.722 9.58372 123.356 10.5792L124.509 12.3892L128.163 7.00734L131.817 1.62547L139.66 1.55539L147.503 1.48531L145.936 3.93665C145.074 5.28488 141.68 10.6147 138.394 15.7807L132.42 25.1734L132.42 39.7916L132.42 54.4099H124.614H116.809V39.7076ZM148.894 35.426C149.003 14.6126 149.002 14.6291 150.633 11.1736C155.285 1.31751 169.101 -2.831 178.722 2.73954C181.291 4.22744 184.449 7.51539 185.782 10.0921C187.419 13.2543 187.823 15.0349 187.823 19.088C187.823 24.3292 186.625 27.7412 183.626 31.0392C180.562 34.4086 175.679 36.1462 169.258 36.1517L167.071 36.1536L167.142 29.2083L167.212 22.263L168.403 22.1186C170.67 21.8435 171.845 20.6821 171.838 18.7216C171.83 16.3163 170.476 15.1375 167.934 15.3253C166.119 15.4594 165.109 16.3642 164.713 18.2109C164.533 19.0474 164.434 25.7325 164.434 36.9604V54.4099H156.614H148.795L148.894 35.426ZM201.676 35.5583L201.608 16.7067L195.589 16.6356L189.57 16.5645V9.02885V1.49319H209.413H229.257V9.03382V16.5744H223.304H217.351V35.4922V54.4099H209.547H201.744L201.676 35.5583ZM400.442 27.9515V1.49319H408.248H416.053V27.9515V54.4099H408.248H400.442V27.9515ZM426.372 27.9285V1.44715L438.344 1.56967C451.617 1.70551 452.378 1.78762 455.934 3.46824C460.445 5.60105 462.62 9.33523 462.62 14.9519C462.62 18.5972 461.405 21.512 458.734 24.2789L457.039 26.0348L458.308 26.7696C461.427 28.5753 463.472 30.9479 464.516 33.9704C465.039 35.4847 465.133 36.2806 465.133 39.1963C465.133 42.1036 465.038 42.9098 464.521 44.4061C463.247 48.0949 460.651 51.0261 457.196 52.6789C454.72 53.8632 453.16 54.1618 448.53 54.3381L444.628 54.4867V47.7375V40.9882L447.077 40.8601C449.601 40.7281 451.034 40.2542 451.343 39.449C451.741 38.4119 451.508 37.0404 450.825 36.3982C450.209 35.8194 449.874 35.7479 447.385 35.6665L444.628 35.5763V28.4566V21.3369H445.537C447.544 21.3369 448.861 20.2623 448.861 18.6238C448.861 16.4282 447.84 15.7807 444.376 15.7807H441.982V35.0953V54.4099H434.177H426.372V27.9285Z" fill="white"/>
</g>
</svg>
